<svg width="75" height="54" viewBox="0 0 75 54" fill="none" xmlns="http://www.w3.org/2000/svg">
<path d="M74.1008 21.082H70.7646V24.57H74.1008V21.082Z" fill="white"/>
<path d="M70.7654 21.082H67.4292V24.57H70.7654V21.082Z" fill="white"/>
<path d="M67.429 21.082H64.0928V24.57H67.429V21.082Z" fill="white"/>
<path d="M67.429 17.5945H64.0928V21.0825H67.429V17.5945Z" fill="white"/>
<path d="M67.429 14.1064H64.0928V17.5945H67.429V14.1064Z" fill="white"/>
<path d="M67.429 10.6184H64.0928V14.1064H67.429V10.6184Z" fill="white"/>
<path d="M67.429 7.13037H64.0928V10.6184H67.429V7.13037Z" fill="white"/>
<path d="M67.429 3.64233H64.0928V7.13035H67.429V3.64233Z" fill="white"/>
<path d="M67.429 0.154297H64.0928V3.64231H67.429V0.154297Z" fill="white"/>
<path d="M60.7571 21.082H57.4209V24.57H60.7571V21.082Z" fill="white"/>
<path d="M60.7571 17.5945H57.4209V21.0825H60.7571V17.5945Z" fill="white"/>
<path d="M60.7571 10.6184H57.4209V14.1064H60.7571V10.6184Z" fill="white"/>
<path d="M60.7571 7.13037H57.4209V10.6184H60.7571V7.13037Z" fill="white"/>
<path d="M60.7571 3.64233H57.4209V7.13035H60.7571V3.64233Z" fill="white"/>
<path d="M57.4202 14.1064H54.084V17.5945H57.4202V14.1064Z" fill="white"/>
<path d="M57.4202 0.154297H54.084V3.64231H57.4202V0.154297Z" fill="white"/>
<path d="M54.0847 14.1064H50.7485V17.5945H54.0847V14.1064Z" fill="white"/>
<path d="M54.0847 0.154297H50.7485V3.64231H54.0847V0.154297Z" fill="white"/>
<path d="M50.7478 14.1064H47.4116V17.5945H50.7478V14.1064Z" fill="white"/>
<path d="M50.7478 0.154297H47.4116V3.64231H50.7478V0.154297Z" fill="white"/>
<path d="M47.4119 14.1064H44.0757V17.5945H47.4119V14.1064Z" fill="white"/>
<path d="M47.4119 0.154297H44.0757V3.64231H47.4119V0.154297Z" fill="white"/>
<path d="M44.0764 21.082H40.7402V24.57H44.0764V21.082Z" fill="white"/>
<path d="M44.0764 17.5945H40.7402V21.0825H44.0764V17.5945Z" fill="white"/>
<path d="M44.0764 14.1064H40.7402V17.5945H44.0764V14.1064Z" fill="white"/>
<path d="M44.0764 10.6184H40.7402V14.1064H44.0764V10.6184Z" fill="white"/>
<path d="M44.0764 7.13037H40.7402V10.6184H44.0764V7.13037Z" fill="white"/>
<path d="M44.0764 3.64233H40.7402V7.13035H44.0764V3.64233Z" fill="white"/>
<path d="M44.0764 0.154297H40.7402V3.64231H44.0764V0.154297Z" fill="white"/>
<path d="M40.7391 48.9033H37.4028V52.3913H40.7391V48.9033Z" fill="white"/>
<path d="M40.7391 45.4153H37.4028V48.9033H40.7391V45.4153Z" fill="white"/>
<path d="M40.7391 41.927H37.4028V45.415H40.7391V41.927Z" fill="white"/>
<path d="M40.7391 38.4395H37.4028V41.9275H40.7391V38.4395Z" fill="white"/>
<path d="M40.7391 35.0342H37.4028V38.5222H40.7391V35.0342Z" fill="white"/>
<path d="M40.7391 31.5464H37.4028V35.0344H40.7391V31.5464Z" fill="white"/>
<path d="M40.7391 28.0581H37.4028V31.5461H40.7391V28.0581Z" fill="white"/>
<path d="M37.4031 41.927H34.0669V45.415H37.4031V41.927Z" fill="white"/>
<path d="M37.4031 0.154297H34.0669V3.64231H37.4031V0.154297Z" fill="white"/>
<path d="M34.0667 38.4395H30.7305V41.9275H34.0667V38.4395Z" fill="white"/>
<path d="M34.0667 0.154297H30.7305V3.64231H34.0667V0.154297Z" fill="white"/>
<path d="M30.7307 35.0342H27.3945V38.5222H30.7307V35.0342Z" fill="white"/>
<path d="M30.7307 21.082H27.3945V24.57H30.7307V21.082Z" fill="white"/>
<path d="M30.7307 17.5945H27.3945V21.0825H30.7307V17.5945Z" fill="white"/>
<path d="M30.7307 14.1064H27.3945V17.5945H30.7307V14.1064Z" fill="white"/>
<path d="M30.7307 10.6184H27.3945V14.1064H30.7307V10.6184Z" fill="white"/>
<path d="M30.7307 7.13037H27.3945V10.6184H30.7307V7.13037Z" fill="white"/>
<path d="M30.7307 3.64233H27.3945V7.13035H30.7307V3.64233Z" fill="white"/>
<path d="M30.7307 0.154297H27.3945V3.64231H30.7307V0.154297Z" fill="white"/>
<path d="M27.4744 35.0342H24.1382V38.5222H27.4744V35.0342Z" fill="white"/>
<path d="M27.4744 0.154297H24.1382V3.64231H27.4744V0.154297Z" fill="white"/>
<path d="M24.138 48.9033H20.8018V52.3913H24.138V48.9033Z" fill="white"/>
<path d="M24.138 45.4153H20.8018V48.9033H24.138V45.4153Z" fill="white"/>
<path d="M24.138 41.927H20.8018V45.415H24.138V41.927Z" fill="white"/>
<path d="M24.138 38.4395H20.8018V41.9275H24.138V38.4395Z" fill="white"/>
<path d="M24.138 35.0342H20.8018V38.5222H24.138V35.0342Z" fill="white"/>
<path d="M24.138 31.5464H20.8018V35.0344H24.138V31.5464Z" fill="white"/>
<path d="M24.138 28.0581H20.8018V31.5461H24.138V28.0581Z" fill="white"/>
<path d="M24.138 0.154297H20.8018V3.64231H24.138V0.154297Z" fill="white"/>
<path d="M17.4661 38.4395H14.1299V41.9275H17.4661V38.4395Z" fill="white"/>
<path d="M17.4661 21.082H14.1299V24.57H17.4661V21.082Z" fill="white"/>
<path d="M17.4661 0.154297H14.1299V3.64231H17.4661V0.154297Z" fill="white"/>
<path d="M14.1292 38.4395H10.793V41.9275H14.1292V38.4395Z" fill="white"/>
<path d="M14.1292 21.082H10.793V24.57H14.1292V21.082Z" fill="white"/>
<path d="M14.1292 0.154297H10.793V3.64231H14.1292V0.154297Z" fill="white"/>
<path d="M10.7937 48.9033H7.45752V52.3913H10.7937V48.9033Z" fill="white"/>
<path d="M10.7937 45.4153H7.45752V48.9033H10.7937V45.4153Z" fill="white"/>
<path d="M10.7937 41.927H7.45752V45.415H10.7937V41.927Z" fill="white"/>
<path d="M10.7937 38.4395H7.45752V41.9275H10.7937V38.4395Z" fill="white"/>
<path d="M10.7937 35.0342H7.45752V38.5222H10.7937V35.0342Z" fill="white"/>
<path d="M10.7937 31.5464H7.45752V35.0344H10.7937V31.5464Z" fill="white"/>
<path d="M10.7937 28.0581H7.45752V31.5461H10.7937V28.0581Z" fill="white"/>
<path d="M10.7937 21.082H7.45752V24.57H10.7937V21.082Z" fill="white"/>
<path d="M10.7937 0.154297H7.45752V3.64231H10.7937V0.154297Z" fill="white"/>
<path d="M7.45631 38.4395H4.12012V41.9275H7.45631V38.4395Z" fill="white"/>
<path d="M7.45631 21.082H4.12012V24.57H7.45631V21.082Z" fill="white"/>
<path d="M7.45631 0.154297H4.12012V3.64231H7.45631V0.154297Z" fill="white"/>
<path d="M4.12087 38.4395H0.784668V41.9275H4.12087V38.4395Z" fill="white"/>
<path d="M4.12087 17.5945H0.784668V21.0825H4.12087V17.5945Z" fill="white"/>
<path d="M4.12087 14.1064H0.784668V17.5945H4.12087V14.1064Z" fill="white"/>
<path d="M4.12087 10.6184H0.784668V14.1064H4.12087V10.6184Z" fill="white"/>
<path d="M4.12087 7.13037H0.784668V10.6184H4.12087V7.13037Z" fill="white"/>
<path d="M4.12087 3.64233H0.784668V7.13035H4.12087V3.64233Z" fill="white"/>
<path d="M50.27 28.4734L73.3057 52.4743" stroke="white" stroke-width="3" stroke-miterlimit="10"/>
<path d="M73.3057 28.3904L50.27 52.4743" stroke="white" stroke-width="3" stroke-miterlimit="10"/>
<path d="M73.3057 28.3904H50.27V52.4743H73.3057V28.3904Z" stroke="white" stroke-width="3" stroke-miterlimit="10"/>
</svg>
