<svg width="115" height="82" viewBox="0 0 115 82" fill="none" xmlns="http://www.w3.org/2000/svg">
<g filter="url(#filter0_d_270_2018)">
<rect x="7" y="6" width="95" height="61.75" fill="#0000FF"/>
<rect x="8.5" y="7.5" width="92" height="58.75" stroke="white" stroke-width="3"/>
</g>
<path d="M87.7503 32.6572H84.7603V35.6487H87.7503V32.6572Z" fill="white"/>
<path d="M84.7607 32.6572H81.7707V35.6487H84.7607V32.6572Z" fill="white"/>
<path d="M81.7703 32.6572H78.7803V35.6487H81.7703V32.6572Z" fill="white"/>
<path d="M81.7703 29.6663H78.7803V32.6577H81.7703V29.6663Z" fill="white"/>
<path d="M81.7703 26.6748H78.7803V29.6663H81.7703V26.6748Z" fill="white"/>
<path d="M81.7703 23.6833H78.7803V26.6748H81.7703V23.6833Z" fill="white"/>
<path d="M81.7703 20.6919H78.7803V23.6833H81.7703V20.6919Z" fill="white"/>
<path d="M81.7703 17.7002H78.7803V20.6917H81.7703V17.7002Z" fill="white"/>
<path d="M81.7703 14.7087H78.7803V17.7002H81.7703V14.7087Z" fill="white"/>
<path d="M75.7913 32.6572H72.8013V35.6487H75.7913V32.6572Z" fill="white"/>
<path d="M75.7913 29.6663H72.8013V32.6577H75.7913V29.6663Z" fill="white"/>
<path d="M75.7913 23.6833H72.8013V26.6748H75.7913V23.6833Z" fill="white"/>
<path d="M75.7913 20.6919H72.8013V23.6833H75.7913V20.6919Z" fill="white"/>
<path d="M75.7913 17.7002H72.8013V20.6917H75.7913V17.7002Z" fill="white"/>
<path d="M72.8002 26.6748H69.8102V29.6663H72.8002V26.6748Z" fill="white"/>
<path d="M72.8002 14.7087H69.8102V17.7002H72.8002V14.7087Z" fill="white"/>
<path d="M69.8108 26.6748H66.8208V29.6663H69.8108V26.6748Z" fill="white"/>
<path d="M69.8108 14.7087H66.8208V17.7002H69.8108V14.7087Z" fill="white"/>
<path d="M66.8205 26.6748H63.8304V29.6663H66.8205V26.6748Z" fill="white"/>
<path d="M66.8205 14.7087H63.8304V17.7002H66.8205V14.7087Z" fill="white"/>
<path d="M63.8308 26.6748H60.8408V29.6663H63.8308V26.6748Z" fill="white"/>
<path d="M63.8308 14.7087H60.8408V17.7002H63.8308V14.7087Z" fill="white"/>
<path d="M60.8412 32.6572H57.8512V35.6487H60.8412V32.6572Z" fill="white"/>
<path d="M60.8412 29.6663H57.8512V32.6577H60.8412V29.6663Z" fill="white"/>
<path d="M60.8412 26.6748H57.8512V29.6663H60.8412V26.6748Z" fill="white"/>
<path d="M60.8412 23.6833H57.8512V26.6748H60.8412V23.6833Z" fill="white"/>
<path d="M60.8412 20.6919H57.8512V23.6833H60.8412V20.6919Z" fill="white"/>
<path d="M60.8412 17.7002H57.8512V20.6917H60.8412V17.7002Z" fill="white"/>
<path d="M60.8412 14.7087H57.8512V17.7002H60.8412V14.7087Z" fill="white"/>
<path d="M57.8502 56.5178H54.8602V59.5093H57.8502V56.5178Z" fill="white"/>
<path d="M57.8502 53.5264H54.8602V56.5178H57.8502V53.5264Z" fill="white"/>
<path d="M57.8502 50.5349H54.8602V53.5264H57.8502V50.5349Z" fill="white"/>
<path d="M57.8502 47.5437H54.8602V50.5352H57.8502V47.5437Z" fill="white"/>
<path d="M57.8502 44.6233H54.8602V47.6147H57.8502V44.6233Z" fill="white"/>
<path d="M57.8502 41.6321H54.8602V44.6235H57.8502V41.6321Z" fill="white"/>
<path d="M57.8502 38.6406H54.8602V41.6321H57.8502V38.6406Z" fill="white"/>
<path d="M54.8606 50.5349H51.8706V53.5264H54.8606V50.5349Z" fill="white"/>
<path d="M54.8606 14.7087H51.8706V17.7002H54.8606V14.7087Z" fill="white"/>
<path d="M51.8704 47.5437H48.8804V50.5352H51.8704V47.5437Z" fill="white"/>
<path d="M51.8704 14.7087H48.8804V17.7002H51.8704V14.7087Z" fill="white"/>
<path d="M48.8807 44.6233H45.8907V47.6147H48.8807V44.6233Z" fill="white"/>
<path d="M48.8807 32.6572H45.8907V35.6487H48.8807V32.6572Z" fill="white"/>
<path d="M48.8807 29.6663H45.8907V32.6577H48.8807V29.6663Z" fill="white"/>
<path d="M48.8807 26.6748H45.8907V29.6663H48.8807V26.6748Z" fill="white"/>
<path d="M48.8807 23.6833H45.8907V26.6748H48.8807V23.6833Z" fill="white"/>
<path d="M48.8807 20.6919H45.8907V23.6833H48.8807V20.6919Z" fill="white"/>
<path d="M48.8807 17.7002H45.8907V20.6917H48.8807V17.7002Z" fill="white"/>
<path d="M48.8807 14.7087H45.8907V17.7002H48.8807V14.7087Z" fill="white"/>
<path d="M45.9621 44.6233H42.9721V47.6147H45.9621V44.6233Z" fill="white"/>
<path d="M45.9621 14.7087H42.9721V17.7002H45.9621V14.7087Z" fill="white"/>
<path d="M42.9715 56.5178H39.9815V59.5093H42.9715V56.5178Z" fill="white"/>
<path d="M42.9715 53.5264H39.9815V56.5178H42.9715V53.5264Z" fill="white"/>
<path d="M42.9715 50.5349H39.9815V53.5264H42.9715V50.5349Z" fill="white"/>
<path d="M42.9715 47.5437H39.9815V50.5352H42.9715V47.5437Z" fill="white"/>
<path d="M42.9715 44.6233H39.9815V47.6147H42.9715V44.6233Z" fill="white"/>
<path d="M42.9715 41.6321H39.9815V44.6235H42.9715V41.6321Z" fill="white"/>
<path d="M42.9715 38.6406H39.9815V41.6321H42.9715V38.6406Z" fill="white"/>
<path d="M42.9715 14.7087H39.9815V17.7002H42.9715V14.7087Z" fill="white"/>
<path d="M36.9924 47.5437H34.0024V50.5352H36.9924V47.5437Z" fill="white"/>
<path d="M36.9924 32.6572H34.0024V35.6487H36.9924V32.6572Z" fill="white"/>
<path d="M36.9924 14.7087H34.0024V17.7002H36.9924V14.7087Z" fill="white"/>
<path d="M34.0016 47.5437H31.0116V50.5352H34.0016V47.5437Z" fill="white"/>
<path d="M34.0016 32.6572H31.0116V35.6487H34.0016V32.6572Z" fill="white"/>
<path d="M34.0016 14.7087H31.0116V17.7002H34.0016V14.7087Z" fill="white"/>
<path d="M31.012 56.5178H28.022V59.5093H31.012V56.5178Z" fill="white"/>
<path d="M31.012 53.5264H28.022V56.5178H31.012V53.5264Z" fill="white"/>
<path d="M31.012 50.5349H28.022V53.5264H31.012V50.5349Z" fill="white"/>
<path d="M31.012 47.5437H28.022V50.5352H31.012V47.5437Z" fill="white"/>
<path d="M31.012 44.6233H28.022V47.6147H31.012V44.6233Z" fill="white"/>
<path d="M31.012 41.6321H28.022V44.6235H31.012V41.6321Z" fill="white"/>
<path d="M31.012 38.6406H28.022V41.6321H31.012V38.6406Z" fill="white"/>
<path d="M31.012 32.6572H28.022V35.6487H31.012V32.6572Z" fill="white"/>
<path d="M31.012 14.7087H28.022V17.7002H31.012V14.7087Z" fill="white"/>
<path d="M28.0216 47.5437H25.0316V50.5352H28.0216V47.5437Z" fill="white"/>
<path d="M28.0216 32.6572H25.0316V35.6487H28.0216V32.6572Z" fill="white"/>
<path d="M28.0216 14.7087H25.0316V17.7002H28.0216V14.7087Z" fill="white"/>
<path d="M25.032 47.5437H22.042V50.5352H25.032V47.5437Z" fill="white"/>
<path d="M25.032 29.6663H22.042V32.6577H25.032V29.6663Z" fill="white"/>
<path d="M25.032 26.6748H22.042V29.6663H25.032V26.6748Z" fill="white"/>
<path d="M25.032 23.6833H22.042V26.6748H25.032V23.6833Z" fill="white"/>
<path d="M25.032 20.6919H22.042V23.6833H25.032V20.6919Z" fill="white"/>
<path d="M25.032 17.7002H22.042V20.6917H25.032V17.7002Z" fill="white"/>
<path d="M66.3927 38.9963L87.0378 59.5804" stroke="white" stroke-width="3" stroke-miterlimit="10"/>
<path d="M87.0378 38.925L66.3927 59.5804" stroke="white" stroke-width="3" stroke-miterlimit="10"/>
<path d="M87.0378 38.925H66.3927V59.5804H87.0378V38.925Z" stroke="white" stroke-width="3" stroke-miterlimit="10"/>
<defs>
<filter id="filter0_d_270_2018" x="0" y="0" width="115" height="81.75" filterUnits="userSpaceOnUse" color-interpolation-filters="sRGB">
<feFlood flood-opacity="0" result="BackgroundImageFix"/>
<feColorMatrix in="SourceAlpha" type="matrix" values="0 0 0 0 0 0 0 0 0 0 0 0 0 0 0 0 0 0 127 0" result="hardAlpha"/>
<feOffset dx="3" dy="4"/>
<feGaussianBlur stdDeviation="5"/>
<feComposite in2="hardAlpha" operator="out"/>
<feColorMatrix type="matrix" values="0 0 0 0 0 0 0 0 0 0 0 0 0 0 0 0 0 0 0.15 0"/>
<feBlend mode="normal" in2="BackgroundImageFix" result="effect1_dropShadow_270_2018"/>
<feBlend mode="normal" in="SourceGraphic" in2="effect1_dropShadow_270_2018" result="shape"/>
</filter>
</defs>
</svg>
