<svg width="139" height="54" viewBox="0 0 139 54" fill="none" xmlns="http://www.w3.org/2000/svg">
<path d="M10.4961 20H8.29297V14.1055H2.36328V20H0.160156V6.91016H2.36328V12.207H8.29297V6.91016H10.4961V20ZM19.3672 20.3047C17.2812 20.3047 15.6602 19.7188 14.5039 18.5469C13.3555 17.3672 12.7812 15.6953 12.7812 13.5312C12.7812 11.3984 13.3398 9.70312 14.457 8.44531C15.5742 7.17969 17.0352 6.54688 18.8398 6.54688C19.6523 6.54688 20.3711 6.66406 20.9961 6.89844C21.6211 7.13281 22.168 7.5 22.6367 8C23.1055 8.5 23.4648 9.11328 23.7148 9.83984C23.9648 10.5586 24.0898 11.4414 24.0898 12.4883V13.6836H15.0195C15.0195 15.207 15.4023 16.3711 16.168 17.1758C16.9336 17.9805 17.9922 18.3828 19.3438 18.3828C19.8281 18.3828 20.3008 18.3281 20.7617 18.2188C21.2305 18.1094 21.6523 17.9688 22.0273 17.7969C22.4258 17.6172 22.7617 17.4453 23.0352 17.2812C23.3086 17.1094 23.5352 16.9492 23.7148 16.8008H23.8438V19.2031C23.5859 19.3047 23.2656 19.4336 22.8828 19.5898C22.5 19.7383 22.1562 19.8555 21.8516 19.9414C21.4219 20.0586 21.0312 20.1484 20.6797 20.2109C20.3359 20.2734 19.8984 20.3047 19.3672 20.3047ZM21.9453 11.9961C21.9297 11.4023 21.8594 10.8906 21.7344 10.4609C21.6094 10.0312 21.4297 9.66797 21.1953 9.37109C20.9375 9.04297 20.6055 8.79297 20.1992 8.62109C19.8008 8.44922 19.3047 8.36328 18.7109 8.36328C18.125 8.36328 17.625 8.45312 17.2109 8.63281C16.8047 8.80469 16.4336 9.05859 16.0977 9.39453C15.7695 9.73828 15.5195 10.1211 15.3477 10.543C15.1758 10.957 15.0664 11.4414 15.0195 11.9961H21.9453ZM36.6523 20H34.4727V10.2383L28.3086 20H26.3164V6.91016H28.4961V16.5195L34.5898 6.91016H36.6523V20ZM48.5117 16.3789C48.5117 17.1133 48.3516 17.7344 48.0312 18.2422C47.7109 18.75 47.3008 19.1523 46.8008 19.4492C46.3242 19.7383 45.7812 19.9531 45.1719 20.0938C44.5625 20.2344 43.9531 20.3047 43.3438 20.3047C42.4844 20.3047 41.6719 20.2188 40.9062 20.0469C40.1406 19.8828 39.3789 19.6172 38.6211 19.25V16.8125H38.7617C39.293 17.3047 39.957 17.6953 40.7539 17.9844C41.5586 18.2656 42.3594 18.4062 43.1562 18.4062C43.5 18.4062 43.8672 18.3711 44.2578 18.3008C44.6562 18.2227 44.9922 18.1055 45.2656 17.9492C45.625 17.7305 45.8789 17.4961 46.0273 17.2461C46.1836 16.9961 46.2617 16.6523 46.2617 16.2148C46.2617 15.7461 46.1719 15.3711 45.9922 15.0898C45.8203 14.8008 45.582 14.5859 45.2773 14.4453C44.9727 14.3047 44.6289 14.2188 44.2461 14.1875C43.8711 14.1484 43.4727 14.1289 43.0508 14.1289H41.5039V12.2305H42.6875C42.9844 12.2305 43.3555 12.2227 43.8008 12.207C44.2461 12.1836 44.6016 12.1211 44.8672 12.0195C45.2031 11.8945 45.4727 11.7188 45.6758 11.4922C45.8789 11.2578 45.9805 10.8672 45.9805 10.3203C45.9805 9.9375 45.8945 9.62891 45.7227 9.39453C45.5508 9.16016 45.3359 8.97656 45.0781 8.84375C44.8125 8.70312 44.5234 8.60938 44.2109 8.5625C43.8984 8.50781 43.5977 8.48047 43.3086 8.48047C42.5664 8.48047 41.8516 8.58594 41.1641 8.79688C40.4844 9 39.8984 9.30469 39.4062 9.71094H39.2656V7.33203C39.8281 7.13672 40.4492 6.96484 41.1289 6.81641C41.8164 6.66797 42.5039 6.59375 43.1914 6.59375C43.7461 6.59375 44.3086 6.65234 44.8789 6.76953C45.457 6.87891 46.0039 7.07031 46.5195 7.34375C47.0039 7.60938 47.4102 7.97656 47.7383 8.44531C48.0664 8.90625 48.2305 9.47266 48.2305 10.1445C48.2305 10.8555 48.0273 11.4805 47.6211 12.0195C47.2227 12.5508 46.6914 12.9023 46.0273 13.0742V13.1562C46.7539 13.4062 47.3477 13.7891 47.8086 14.3047C48.2773 14.8203 48.5117 15.5117 48.5117 16.3789ZM61.0977 16.0391C61.0977 16.6719 60.9766 17.2344 60.7344 17.7266C60.4922 18.2109 60.1602 18.6172 59.7383 18.9453C59.207 19.3594 58.6484 19.6406 58.0625 19.7891C57.4844 19.9297 56.7891 20 55.9766 20H50.832V6.91016H55.6367C56.5977 6.91016 57.3008 6.94141 57.7461 7.00391C58.1914 7.05859 58.6328 7.20703 59.0703 7.44922C59.5312 7.69922 59.8711 8.03125 60.0898 8.44531C60.3086 8.85938 60.418 9.35156 60.418 9.92188C60.418 10.5469 60.2461 11.1094 59.9023 11.6094C59.5586 12.1016 59.1016 12.4844 58.5312 12.7578L58.5898 12.8398C59.3008 13.0195 59.8945 13.3828 60.3711 13.9297C60.8555 14.4766 61.0977 15.1797 61.0977 16.0391ZM58.1562 10.2617C58.1562 9.96484 58.1055 9.70703 58.0039 9.48828C57.9102 9.26953 57.7422 9.09766 57.5 8.97266C57.2188 8.82422 56.9023 8.73828 56.5508 8.71484C56.207 8.68359 55.7266 8.66797 55.1094 8.66797H53.0117V12.2539H55.543C56.082 12.2539 56.4648 12.2305 56.6914 12.1836C56.918 12.1289 57.168 12.0195 57.4414 11.8555C57.6992 11.6992 57.8828 11.4883 57.9922 11.2227C58.1016 10.957 58.1562 10.6367 58.1562 10.2617ZM58.8242 16.0508C58.8242 15.6055 58.7578 15.25 58.625 14.9844C58.5 14.7109 58.2188 14.4688 57.7812 14.2578C57.5078 14.125 57.2148 14.043 56.9023 14.0117C56.5898 13.9805 56.1562 13.9648 55.6016 13.9648H53.0117V18.2422H54.9219C55.7109 18.2422 56.3242 18.2109 56.7617 18.1484C57.1992 18.0859 57.5742 17.9609 57.8867 17.7734C58.2148 17.5703 58.4531 17.3359 58.6016 17.0703C58.75 16.8047 58.8242 16.4648 58.8242 16.0508ZM69.1016 20.3047C67.0156 20.3047 65.3945 19.7188 64.2383 18.5469C63.0898 17.3672 62.5156 15.6953 62.5156 13.5312C62.5156 11.3984 63.0742 9.70312 64.1914 8.44531C65.3086 7.17969 66.7695 6.54688 68.5742 6.54688C69.3867 6.54688 70.1055 6.66406 70.7305 6.89844C71.3555 7.13281 71.9023 7.5 72.3711 8C72.8398 8.5 73.1992 9.11328 73.4492 9.83984C73.6992 10.5586 73.8242 11.4414 73.8242 12.4883V13.6836H64.7539C64.7539 15.207 65.1367 16.3711 65.9023 17.1758C66.668 17.9805 67.7266 18.3828 69.0781 18.3828C69.5625 18.3828 70.0352 18.3281 70.4961 18.2188C70.9648 18.1094 71.3867 17.9688 71.7617 17.7969C72.1602 17.6172 72.4961 17.4453 72.7695 17.2812C73.043 17.1094 73.2695 16.9492 73.4492 16.8008H73.5781V19.2031C73.3203 19.3047 73 19.4336 72.6172 19.5898C72.2344 19.7383 71.8906 19.8555 71.5859 19.9414C71.1562 20.0586 70.7656 20.1484 70.4141 20.2109C70.0703 20.2734 69.6328 20.3047 69.1016 20.3047ZM71.6797 11.9961C71.6641 11.4023 71.5938 10.8906 71.4688 10.4609C71.3438 10.0312 71.1641 9.66797 70.9297 9.37109C70.6719 9.04297 70.3398 8.79297 69.9336 8.62109C69.5352 8.44922 69.0391 8.36328 68.4453 8.36328C67.8594 8.36328 67.3594 8.45312 66.9453 8.63281C66.5391 8.80469 66.168 9.05859 65.832 9.39453C65.5039 9.73828 65.2539 10.1211 65.082 10.543C64.9102 10.957 64.8008 11.4414 64.7539 11.9961H71.6797ZM81.2539 20.293C80.3555 20.293 79.5312 20.1562 78.7812 19.8828C78.0312 19.6016 77.3867 19.1797 76.8477 18.6172C76.3086 18.0547 75.8906 17.3477 75.5938 16.4961C75.2969 15.6367 75.1484 14.6289 75.1484 13.4727C75.1484 12.3242 75.3008 11.332 75.6055 10.4961C75.918 9.66016 76.332 8.95703 76.8477 8.38672C77.3633 7.81641 78.0039 7.37891 78.7695 7.07422C79.543 6.76172 80.3711 6.60547 81.2539 6.60547C81.9727 6.60547 82.6641 6.70703 83.3281 6.91016C84 7.11328 84.5977 7.34766 85.1211 7.61328V10.0859H84.9922C84.8359 9.95312 84.6328 9.80078 84.3828 9.62891C84.1406 9.45703 83.8438 9.28125 83.4922 9.10156C83.1875 8.94531 82.8281 8.80859 82.4141 8.69141C82 8.57422 81.6016 8.51562 81.2188 8.51562C80.0781 8.51562 79.1602 8.94922 78.4648 9.81641C77.7773 10.6758 77.4336 11.8945 77.4336 13.4727C77.4336 15.0195 77.7656 16.2266 78.4297 17.0938C79.1016 17.9531 80.0312 18.3828 81.2188 18.3828C81.9375 18.3828 82.6211 18.2344 83.2695 17.9375C83.918 17.6406 84.4922 17.2578 84.9922 16.7891H85.1211V19.2617C84.9023 19.3633 84.6289 19.4883 84.3008 19.6367C83.9727 19.7773 83.6758 19.8828 83.4102 19.9531C83.0352 20.0625 82.6992 20.1445 82.4023 20.1992C82.1055 20.2617 81.7227 20.293 81.2539 20.293ZM96.6992 8.84375H92.2461V20H90.043V8.84375H85.5898V6.91016H96.6992V8.84375ZM108.676 20H106.473V14.1055H100.543V20H98.3398V6.91016H100.543V12.207H106.473V6.91016H108.676V20ZM121.578 15.9453C121.578 16.5781 121.449 17.1523 121.191 17.668C120.941 18.1836 120.598 18.6016 120.16 18.9219C119.645 19.3125 119.094 19.5898 118.508 19.7539C117.922 19.918 117.168 20 116.246 20H111.863V6.91016H114.066V12.0078H116.305C117.289 12.0078 118.051 12.0586 118.59 12.1602C119.137 12.2617 119.68 12.5117 120.219 12.9102C120.672 13.2461 121.012 13.6758 121.238 14.1992C121.465 14.7227 121.578 15.3047 121.578 15.9453ZM119.305 15.9805C119.305 15.582 119.234 15.2344 119.094 14.9375C118.961 14.6328 118.738 14.3867 118.426 14.1992C118.098 14.0039 117.723 13.8867 117.301 13.8477C116.887 13.8086 116.289 13.7891 115.508 13.7891H114.066V18.2422H115.461C116.242 18.2422 116.848 18.2109 117.277 18.1484C117.707 18.0781 118.078 17.9492 118.391 17.7617C118.711 17.5586 118.941 17.3203 119.082 17.0469C119.23 16.7656 119.305 16.4102 119.305 15.9805ZM125.305 20H123.102V6.91016H125.305V20ZM138.84 20H136.66V10.2383L130.496 20H128.504V6.91016H130.684V16.5195L136.777 6.91016H138.84V20ZM137.855 0.828125C137.855 1.5 137.773 2.11328 137.609 2.66797C137.445 3.21484 137.211 3.67578 136.906 4.05078C136.555 4.46484 136.156 4.77734 135.711 4.98828C135.266 5.19141 134.695 5.29297 134 5.29297C133.359 5.29297 132.797 5.1875 132.312 4.97656C131.836 4.75781 131.434 4.44922 131.105 4.05078C130.785 3.66016 130.543 3.19141 130.379 2.64453C130.215 2.09766 130.133 1.49219 130.133 0.828125H132.031C132.031 1.88281 132.195 2.64453 132.523 3.11328C132.852 3.57422 133.344 3.80469 134 3.80469C134.617 3.80469 135.098 3.57813 135.441 3.125C135.785 2.66406 135.957 1.89844 135.957 0.828125H137.855ZM58.1562 42.1094C58.1562 43.2734 58.0117 44.3047 57.7227 45.2031C57.4414 46.0938 57.0664 46.8281 56.5977 47.4062C56.1211 47.9922 55.582 48.4375 54.9805 48.7422C54.3789 49.0391 53.75 49.1875 53.0938 49.1875C52.6016 49.1875 52.168 49.0938 51.793 48.9062C51.4258 48.7188 51.1133 48.5586 50.8555 48.4258V53.8281H48.6758V48.4258C48.2148 48.668 47.8477 48.8555 47.5742 48.9883C47.3008 49.1211 46.8516 49.1875 46.2266 49.1875C44.7578 49.1875 43.582 48.5938 42.6992 47.4062C41.8164 46.2109 41.375 44.5742 41.375 42.4961C41.375 41.4023 41.5156 40.4258 41.7969 39.5664C42.0781 38.707 42.4648 37.9766 42.957 37.375C43.4102 36.8203 43.9336 36.3906 44.5273 36.0859C45.1289 35.7734 45.7539 35.6172 46.4023 35.6172C46.8633 35.6172 47.2773 35.6992 47.6445 35.8633C48.0195 36.0195 48.3633 36.1992 48.6758 36.4023V30.7656H50.8555V36.4023C51.1992 36.1914 51.5938 36.0078 52.0391 35.8516C52.4844 35.6953 52.9414 35.6172 53.4102 35.6172C54.8789 35.6172 56.0352 36.207 56.8789 37.3867C57.7305 38.5586 58.1562 40.1328 58.1562 42.1094ZM55.8945 42.3555C55.8945 40.8633 55.6406 39.6836 55.1328 38.8164C54.6328 37.9492 53.8906 37.5156 52.9062 37.5156C52.5 37.5156 52.1406 37.5703 51.8281 37.6797C51.5234 37.7812 51.1992 37.8945 50.8555 38.0195V46.75C51.1992 46.9141 51.4766 47.0469 51.6875 47.1484C51.9062 47.25 52.2227 47.3008 52.6367 47.3008C53.6523 47.3008 54.4492 46.8828 55.0273 46.0469C55.6055 45.2109 55.8945 43.9805 55.8945 42.3555ZM48.6758 46.75V38.0195C48.3945 37.8867 48.1133 37.7695 47.832 37.668C47.5508 37.5664 47.2383 37.5156 46.8945 37.5156C45.8945 37.5156 45.1016 37.9102 44.5156 38.6992C43.9297 39.4883 43.6367 40.7188 43.6367 42.3906C43.6367 43.9141 43.8984 45.1133 44.4219 45.9883C44.9531 46.8633 45.7109 47.3008 46.6953 47.3008C47.0859 47.3008 47.4375 47.2422 47.75 47.125C48.0625 47.0078 48.3711 46.8828 48.6758 46.75ZM67.7891 45.7773V42.1445C67.2656 42.1914 66.6016 42.2578 65.7969 42.3438C65 42.4219 64.3555 42.5352 63.8633 42.6836C63.2773 42.8633 62.793 43.1406 62.4102 43.5156C62.0273 43.8828 61.8359 44.3984 61.8359 45.0625C61.8359 45.8125 62.0469 46.3789 62.4688 46.7617C62.8906 47.1445 63.5078 47.3359 64.3203 47.3359C65.0156 47.3359 65.6445 47.1875 66.207 46.8906C66.7695 46.5859 67.2969 46.2148 67.7891 45.7773ZM67.7891 47.6055C67.6094 47.7383 67.3672 47.9258 67.0625 48.168C66.7656 48.4023 66.4766 48.5898 66.1953 48.7305C65.8047 48.9336 65.4258 49.0898 65.0586 49.1992C64.6992 49.3086 64.1914 49.3633 63.5352 49.3633C62.9961 49.3633 62.4844 49.2617 62 49.0586C61.5156 48.8555 61.0898 48.5703 60.7227 48.2031C60.3711 47.8438 60.0898 47.4023 59.8789 46.8789C59.668 46.3477 59.5625 45.7891 59.5625 45.2031C59.5625 44.2969 59.7539 43.5273 60.1367 42.8945C60.5195 42.2539 61.125 41.7461 61.9531 41.3711C62.6875 41.0352 63.5547 40.8047 64.5547 40.6797C65.5547 40.5469 66.6328 40.4492 67.7891 40.3867V39.9648C67.7891 39.4492 67.7109 39.0352 67.5547 38.7227C67.3984 38.4023 67.1797 38.1562 66.8984 37.9844C66.6172 37.8047 66.2734 37.6875 65.8672 37.6328C65.4609 37.5703 65.043 37.5391 64.6133 37.5391C64.1055 37.5391 63.5078 37.6172 62.8203 37.7734C62.1328 37.9219 61.4453 38.1406 60.7578 38.4297H60.6289V36.1914C61.0352 36.0742 61.6172 35.9453 62.375 35.8047C63.1328 35.6641 63.8828 35.5938 64.625 35.5938C65.5234 35.5938 66.2812 35.6641 66.8984 35.8047C67.5156 35.9453 68.0703 36.1992 68.5625 36.5664C69.0391 36.9258 69.3945 37.3906 69.6289 37.9609C69.8633 38.5312 69.9805 39.2266 69.9805 40.0469V49H67.7891V47.6055ZM83.4219 49H81.2422V39.2383L75.0781 49H73.0859V35.9102H75.2656V45.5195L81.3594 35.9102H83.4219V49ZM82.4375 29.8281C82.4375 30.5 82.3555 31.1133 82.1914 31.668C82.0273 32.2148 81.793 32.6758 81.4883 33.0508C81.1367 33.4648 80.7383 33.7773 80.293 33.9883C79.8477 34.1914 79.2773 34.293 78.582 34.293C77.9414 34.293 77.3789 34.1875 76.8945 33.9766C76.418 33.7578 76.0156 33.4492 75.6875 33.0508C75.3672 32.6602 75.125 32.1914 74.9609 31.6445C74.7969 31.0977 74.7148 30.4922 74.7148 29.8281H76.6133C76.6133 30.8828 76.7773 31.6445 77.1055 32.1133C77.4336 32.5742 77.9258 32.8047 78.582 32.8047C79.1992 32.8047 79.6797 32.5781 80.0234 32.125C80.3672 31.6641 80.5391 30.8984 80.5391 29.8281H82.4375ZM96.7461 49H94.543V37.7617H90.043C90.0195 38.4102 89.9961 39.0352 89.9727 39.6367C89.9492 40.2305 89.9258 40.7695 89.9023 41.2539C89.8555 42.4805 89.7734 43.5078 89.6562 44.3359C89.5469 45.1641 89.4062 45.8281 89.2344 46.3281C89.0625 46.8438 88.8711 47.2461 88.6602 47.5352C88.457 47.8242 88.2266 48.0859 87.9688 48.3203C87.7031 48.5547 87.418 48.7305 87.1133 48.8477C86.8086 48.9648 86.4648 49.0234 86.082 49.0234C85.957 49.0234 85.7969 49.0195 85.6016 49.0117C85.4062 49.0039 85.2695 49 85.1914 49V47.0781H85.3086C85.3633 47.0781 85.418 47.082 85.4727 47.0898C85.5352 47.0977 85.6055 47.1016 85.6836 47.1016C85.8711 47.1016 86.0547 47.0742 86.2344 47.0195C86.4141 46.9648 86.5742 46.8633 86.7148 46.7148C87.1055 46.332 87.3906 45.6641 87.5703 44.7109C87.75 43.75 87.8789 42.4102 87.957 40.6914C87.9883 40.0508 88.0156 39.293 88.0391 38.418C88.0703 37.543 88.0977 36.707 88.1211 35.9102H96.7461V49Z" fill="#0000FF"/>
</svg>
